<svg xmlns="http://www.w3.org/2000/svg" viewBox="0 0 302.9 108.7"><path d="M161.9 21.9c-.5 0-1 .1-1.5.3-.4.2-.7.5-1 .9s-.5.8-.6 1.3-.2 1-.2 1.5.1 1.2.1 2.1c.1.9.2 1.8.4 2.6h4.2l-.1.4v.8l.1.4-2.1-.1h-2.1v8.8c0 2.9.1 5.9.1 8.8-.3-.1-.6-.1-.9-.1h-.8c-.6 0-1.2 0-1.8.1.2-2.9.3-5.9.3-8.8v-8.8h-1.5l-1.5.1c0-.1 0-.3.1-.4V31c0-.1 0-.3-.1-.4h2.9c0-.9.1-1.7.2-2.5.2-.9.4-1.8.7-2.7s.7-1.7 1.1-2.5c.4-.7.9-1.4 1.5-2 .5-.5 1.2-1 1.9-1.3.7-.4 1.5-.6 2.3-.6.3 0 .6 0 .8.1 0 .5-.1 1.1-.1 1.6s-.1 1.1-.1 1.6l-.2.1c-.6-.3-1.4-.5-2.1-.5m12.6 11.5c-.4-.1-.8-.2-1.2-.2-.6 0-1.2.1-1.8.4-.5.3-1 .7-1.3 1.2-.4.5-.6 1.1-.8 1.8-.2.7-.3 1.5-.3 2.2v8.7c0 .8.1 1.6.1 2.3-.5-.1-1.1-.1-1.6-.1-.6 0-1.1 0-1.7.1.1-.9.1-2.2.1-3.8V35.2c0-1.4-.1-3-.1-4.7l.9.1c.3 0 .6.1.9.1.3 0 .5 0 .8-.1l.9-.1c-.1 1-.2 1.7-.2 2.3v1.6h.1c1.6-2.9 3.4-4.4 5.4-4.4h.6c.2 0 .5.1.7.2-.2.5-.2 1-.2 1.5 0 .7-.1 1.3-.1 1.8l-.3.2-.9-.3m2.3 6.6c0-1 .1-2 .1-3v-3.1c0-1.1 0-2.2-.1-3.4.6.1 1.1.2 1.7.2.6 0 1.1-.1 1.7-.2-.1 1.6-.2 3.4-.3 5.3s-.1 3.9-.1 5.9c0 1.1.1 2.2.4 3.2.2.6.5 1.2.9 1.7s.9.8 1.4 1.1c.6.3 1.3.4 2 .4 1 0 2-.3 2.9-.8.7-.5 1.3-1.1 1.7-1.8.2-.5.3-.8.4-1.2.1-.4.2-.9.3-1.3.1-.7.1-1.5.1-2.2V30.4l.9.1c.3 0 .6.1.8.1.3 0 .6 0 .9-.1l.8-.1c-.1 2.1-.2 4.1-.2 6.1v9.8c0 1.2.1 2.3.1 3.4-1.1-.1-2.1-.1-3.2 0 0-.2.1-.5.1-.8v-2.5h-.1c-.6 1.2-1.5 2.2-2.7 2.9-1.1.6-2.4.9-3.6.9-1.8.1-3.6-.5-5-1.7-1.3-1.3-1.9-3-1.8-4.8-.2-1.5-.2-2.7-.1-3.7m21-18c.8-.8 2-.8 2.8-.1l.1.1c.8.8.8 2 .1 2.8l-.1.1c-.8.8-2 .8-2.8.1l-.1-.1c-.8-.8-.8-2.1 0-2.9m-.1 12.3c0-1.3-.1-2.6-.2-3.8.6.1 1.2.2 1.8.2s1.2-.1 1.8-.2c-.1 1.2-.2 2.4-.3 3.8s-.1 2.6-.1 3.8v4.2c0 1.2 0 2.5.1 3.8s.1 2.6.3 3.6c-.6-.1-1.2-.1-1.8-.1s-1.2 0-1.8.1c.1-1.1.2-2.3.2-3.6s.1-2.6.1-3.8v-4.2c-.1-1.2-.1-2.5-.1-3.8zm11.2-9.2c-.1 1-.1 2-.2 3 0 1-.1 2-.1 3h1.7c.8 0 1.7-.1 2.6-.1v1.6c-.4 0-.7 0-1.1-.1s-.8 0-1.2 0h-2c0 .1-.1.6-.1 1.3s-.1 1.7-.1 2.7 0 2.1-.1 3.3 0 2.2 0 3 0 1.5.1 2.2c0 .7.2 1.4.4 2 .2.5.5 1 1 1.4s1.2.6 1.9.5c.3 0 .6 0 .9-.1.3 0 .7-.1 1-.2v1l-1.5.3c-.5.1-1.1.2-1.6.2-1.4.1-2.8-.4-3.9-1.3-.9-1-1.3-2.3-1.2-3.7v-2.4c0-.9.1-1.8.1-2.8s.1-2.1.1-3.4v-4.1h-2.1l-.8.1c0-.2 0-.3.1-.5v-.9c0-.1 0-.3-.1-.4 1.2.1 2.1.1 2.7.1 0-.6 0-1.2-.1-2s0-1.7-.1-2.5l3.4-1.4.3.2m7.4 21.8c.3.3.6.6 1 .9s.9.5 1.3.7c.5.2 1.1.3 1.6.3s1-.1 1.5-.2c.5-.2.9-.4 1.3-.7.4-.3.7-.7.9-1.1.2-.5.3-1 .3-1.6 0-.7-.2-1.4-.7-1.9s-1.1-.8-1.8-1.1c-.8-.3-1.5-.6-2.3-.8-.8-.2-1.6-.5-2.3-.9s-1.3-.9-1.8-1.6c-.5-.8-.8-1.7-.7-2.7 0-.8.1-1.7.4-2.4.3-.7.7-1.4 1.3-1.9.6-.6 1.3-1 2.1-1.3.9-.3 1.9-.5 2.9-.5.9 0 1.7.1 2.5.4.7.3 1.3.5 2 .7l-.6 1.5c-.1.5-.3.9-.4 1.4h-.3c-.3-.7-.7-1.3-1.3-1.7-.7-.5-1.5-.8-2.3-.8-.4 0-.8.1-1.2.2s-.8.3-1.1.6c-.3.3-.6.7-.8 1.1-.2.5-.3 1-.3 1.5 0 .7.2 1.5.7 2s1.1.9 1.8 1.1c.8.3 1.5.5 2.3.7.8.2 1.6.5 2.3.9.7.4 1.3.9 1.8 1.5.5.8.8 1.7.7 2.7 0 .8-.2 1.6-.5 2.3-.4.8-.9 1.4-1.5 2-.7.6-1.4 1.1-2.3 1.4-1 .3-2 .5-3 .5-1.1.1-2.1-.1-3.2-.3-.7-.2-1.4-.5-2.1-.8.2-.5.4-1 .5-1.4.2-.5.2-1 .2-1.5h.5c.1.2.3.5.6.8M104.9 28c0-1.1 0-2.1-.1-3.2s-.1-2-.1-3-.1-1.8-.1-2.4c1.2.3 2.4.3 3.6 0 0 .7-.1 1.5-.1 2.4s-.1 2-.1 3 0 2.1-.1 3.2 0 2.1 0 3v10.3c0 1.1 0 2.1.1 3.2s.1 2 .1 3 .1 1.7.1 2.3c-.6 0-1.2-.1-1.8-.1s-1.2 0-1.8.1c.1-.6.1-1.4.1-2.3s.1-1.9.1-3 .1-2.1.1-3.2V28m26.3 18.9c.3.3.6.6 1 .9s.9.5 1.3.7c.5.2 1 .3 1.6.3.5 0 1-.1 1.5-.2s.9-.4 1.2-.7c.4-.3.7-.7.9-1.1.2-.5.3-1 .3-1.6 0-.7-.2-1.4-.7-1.9s-1.1-.8-1.8-1.1c-.7-.3-1.5-.6-2.3-.8-.8-.2-1.6-.5-2.3-.9s-1.3-.9-1.7-1.6c-.5-.8-.8-1.7-.7-2.7 0-.8.1-1.7.4-2.4.3-.7.7-1.4 1.3-1.9.6-.6 1.3-1 2.1-1.3.9-.3 1.9-.5 2.9-.5.9 0 1.7.1 2.5.4.7.3 1.3.5 2 .7-.2.5-.5 1-.6 1.5-.1.4-.3.9-.4 1.4h-.5c-.2-.7-.7-1.3-1.2-1.7-.6-.5-1.5-.8-2.3-.8-.4 0-.8.1-1.2.2s-.8.3-1.1.6c-.3.3-.6.6-.8 1-.2.5-.3 1-.3 1.5 0 .7.2 1.5.7 2s1.1.9 1.8 1.1c.7.3 1.5.5 2.3.7s1.6.5 2.3.8c.7.4 1.3.9 1.7 1.5.5.8.8 1.7.7 2.7 0 .8-.2 1.6-.5 2.3-.4.8-.8 1.4-1.4 2-.7.7-1.5 1.2-2.3 1.5-1 .3-2 .5-3 .5s-2.1-.1-3.1-.4c-.7-.2-1.4-.5-2.1-.8.2-.5.4-.9.5-1.4.2-.5.2-1 .3-1.5h.5c0 .4.2.7.5 1m-3.9-11.7c-.3-1-.9-1.9-1.6-2.6-.7-.8-1.6-1.4-2.6-1.8-1.2-.5-2.4-.7-3.7-.7-3 0-5.3.9-6.9 2.8s-2.4 4.5-2.4 7.8c0 1.3.2 2.6.7 3.8.4 1.1 1.1 2.2 2 3 .9.9 1.9 1.5 3.1 1.9 1.3.5 2.6.7 4 .7 1.3 0 2.5-.2 3.7-.7 1.1-.4 2.1-1 3-1.7l.2-2-.2-.1c-.4.4-.8.8-1.3 1.2-.5.4-1 .7-1.5.9-.5.3-1.1.5-1.6.6s-1.1.2-1.6.2c-1 0-2.1-.2-3-.6-1.7-.8-3-2.2-3.5-3.9-.3-.9-.5-1.9-.5-2.9V40c0-.6.1-1.3.1-1.9 0-.2 0-.4.1-.6 0-.2.1-.3.1-.5.1-.3.1-.5.2-.8.2-.8.6-1.6 1-2.2.4-.7 1-1.3 1.7-1.7.8-.5 1.6-.7 2.5-.7s1.8.2 2.5.7c.6.5 1.2 1 1.5 1.7.4.7.6 1.5.7 2.2.2.7.3 1.5.3 2.2h-.8l-5.4.2h-.3c-.4 0-.6.2-.6.5s.3.4.6.4h.3l9.6.3c0-.3 0-.5.1-.8v-.8c0-1.1-.2-2.2-.5-3.2m-22.6 26.8c0-1.1 0-2.2-.1-3.2s-.1-2.1-.1-3-.1-1.8-.1-2.4c1.2.3 2.4.3 3.6 0-.1.7-.1 1.5-.1 2.4s-.1 2-.1 3 0 2.1-.1 3.2 0 2.1 0 3v10.3c0 1.1 0 2.2.1 3.2 0 1 .1 2 .1 3s.1 1.7.1 2.4c-.6-.1-1.2-.1-1.8-.1s-1.2 0-1.8.1c.1-.6.1-1.4.1-2.4s.1-2 .1-3 0-2.1.1-3.2 0-2.1 0-3V61.8m26.5 5.9c.4-.8 1-1.5 1.7-2 .7-.6 1.6-1 2.5-1.2 1-.3 2-.4 3-.4h1.5c.5 0 1.1.1 1.8.1s1.2.1 1.7.1h1.2c1.1 0 2.2 0 3.3-.2 0 .1-.1.3-.1.4v.8c0 .1 0 .3.1.4-.8-.1-1.6-.1-2.3-.2s-1.5-.1-2.2-.1l-.1.1c.9.5 1.6 1.2 2 2.1.5.9.8 2 .8 3 .1 1.8-.6 3.6-2 4.8-1.6 1.2-3.5 1.8-5.5 1.7h-2.2c-.5 0-1 .2-1.4.5s-.6.8-.6 1.3c-.1.6.1 1.1.5 1.6.5.4 1.2.6 1.9.5.8 0 1.5 0 2.2.1l2.2.1c1.1 0 2.1.1 3.2.4.8.2 1.5.6 2.1 1.1.5.4.9 1 1.2 1.6s.4 1.3.4 2c0 1-.2 2-.5 2.9-.4 1-1 1.9-1.7 2.6-.9.9-1.9 1.5-3 2-1.4.5-2.9.8-4.4.8-2.2.1-4.3-.4-6.2-1.6-1.5-.9-2.3-2.5-2.3-4.3 0-.7.1-1.3.4-1.9.2-.6.6-1.1 1-1.6.4-.4.9-.8 1.4-1.1.5-.3 1-.5 1.6-.6v-.1c-.8-.2-1.4-.6-1.9-1.2-.4-.6-.7-1.3-.6-2 0-.4.1-.9.3-1.2.2-.4.4-.7.7-1s.6-.5.9-.7c.3-.2.6-.3 1-.4v-.1c-1.2-.5-2.2-1.3-2.9-2.3-.7-1.1-1.1-2.4-1-3.7 0-1 .2-2 .6-2.9m12.2 16.9c-1.4-.8-3.1-1.1-4.7-1-1.6-.1-3.3.3-4.7 1-1.2.8-1.8 2.2-1.7 3.6 0 .8.1 1.6.5 2.3.3.6.7 1.2 1.3 1.6s1.2.7 1.9.9c.8.2 1.6.3 2.4.3.8 0 1.6-.1 2.4-.3.7-.2 1.5-.5 2.1-1s1.1-1.1 1.5-1.8c.4-.7.6-1.5.6-2.4.1-1.3-.4-2.6-1.5-3.4l-.1.2zm-2-18.1c-.8-.9-2-1.4-3.2-1.3-1.3-.1-2.6.5-3.4 1.5-.9 1.1-1.3 2.6-1.2 4-.1 1.4.3 2.8 1.1 4 1.4 1.5 3.6 1.9 5.5 1 .5-.3 1-.7 1.4-1.3.4-.6.6-1.2.8-1.8.2-.7.3-1.4.3-2.2.1-1.5-.3-3-1.3-4.1v.2zm7.4 7.2c0-1 .1-2 .1-3v-3.1c0-1.1 0-2.2-.1-3.4 1.1.3 2.3.3 3.4 0-.1 1.6-.2 3.4-.3 5.3s-.1 3.9-.1 5.9c0 1.1.1 2.2.4 3.2.2.6.5 1.2.9 1.7.9 1 2.2 1.5 3.5 1.5 1 0 2-.2 2.8-.8.7-.5 1.3-1.1 1.7-1.8.2-.4.4-.8.4-1.2.1-.4.2-.9.3-1.3.1-.7.1-1.5.1-2.2v-8.9c0-.5 0-1.1-.1-1.6l.9.2c.3 0 .6.1.9.1.3 0 .6 0 .9-.1.3 0 .5-.1.8-.2-.1 2.1-.2 4.2-.2 6.1v9.8c0 1.2.1 2.3.1 3.4-.5-.1-1.1-.1-1.6-.1s-1.1 0-1.6.1c0-.2.1-.5.1-.8v-2.5h-.1c-.6 1.2-1.5 2.2-2.7 2.8-1.1.6-2.4.9-3.6.9-1.8.1-3.6-.5-5-1.7-1.3-1.3-1.9-3-1.8-4.8-.3-1.3-.3-2.5-.1-3.5m20.9-5.7c0-1.3-.1-2.6-.3-3.8.6.1 1.2.2 1.8.2.2 0 .5 0 .7-.1l.9-.2c-.1 1.1-.1 2.2-.1 3.2h.1c1.5-2.9 4.9-4.3 8-3.3.6.2 1.2.5 1.8.8.5.3 1 .8 1.4 1.3s.6 1 .8 1.6h.1c.6-1.2 1.5-2.3 2.7-3s2.5-1 3.9-1c.8 0 1.7.1 2.5.4 1.5.5 2.7 1.6 3.3 3.1.3.9.5 1.9.5 2.9v1.5c0 .5-.1 1.2-.1 1.9s-.1 1.5-.1 2.4v5.2c0 .7 0 1.4.1 2.2-.3-.1-.6-.1-.9-.1h-1.8c-.3 0-.6 0-.9.1.1-.7.2-2.1.3-4.1s.1-4.9.1-8.6c0-.6-.1-1.3-.2-1.9-.1-.6-.4-1.1-.7-1.5-.4-.4-.8-.8-1.3-1-.6-.3-1.3-.4-2-.4-1.6 0-3.1.7-4.1 1.9-.2.3-.4.6-.5.9-.2.4-.3.9-.3 1.3-.1.6-.1 1.5-.1 2.6v4.5c0 1.2 0 2.2.1 3.2s.1 2 .1 3.2c-.6-.1-1.2-.1-1.8-.1s-1.1 0-1.8.1c.1-1.5.2-3 .2-4.6s.1-3 .1-4.5v-3c0-.7 0-1.3-.1-1.7 0-.3-.1-.7-.2-1-.1-.3-.2-.6-.4-.9-.3-.6-.8-1-1.4-1.3-.6-.4-1.3-.6-2-.6-1.5-.1-3 .5-3.9 1.7-.9 1.5-1.4 3.2-1.2 4.9V76c0 1.2 0 2.5.1 3.8s.1 2.6.3 3.6c-.6-.1-1.2-.1-1.8-.1s-1.2 0-1.8.1c.1-1.1.2-2.3.3-3.6s.1-2.6.1-3.8v-4.3c0-1.2 0-2.5-.1-3.8m51.4 12.9c.3.3.6.6 1 .9s.9.5 1.3.7c.5.2 1.1.3 1.6.3s1-.1 1.5-.2c.5-.2.9-.4 1.3-.7.4-.3.7-.7.9-1.1.2-.5.3-1 .3-1.6 0-.7-.2-1.4-.7-1.9s-1.1-.8-1.8-1.1c-.7-.3-1.5-.5-2.3-.8-.8-.2-1.6-.5-2.3-.9-.7-.4-1.3-.9-1.8-1.6-.5-.8-.8-1.7-.7-2.7 0-.8.1-1.7.4-2.4.3-.7.7-1.4 1.3-1.9.6-.6 1.3-1 2.1-1.3.9-.3 1.9-.5 2.9-.5.9 0 1.7.1 2.5.4.7.3 1.4.5 2 .7l-.6 1.5c-.1.4-.3.9-.4 1.4h-.5c-.2-.7-.7-1.3-1.3-1.7-.7-.5-1.5-.8-2.3-.8-.4 0-.8.1-1.2.2-.8.3-1.5.9-1.9 1.7-.2.5-.3 1-.3 1.5 0 .7.2 1.5.7 2s1.1.9 1.8 1.1c.8.3 1.5.5 2.3.7s1.6.5 2.3.8c.7.4 1.3.9 1.8 1.5.5.8.8 1.7.7 2.7 0 .8-.2 1.6-.5 2.3-.3.8-.8 1.5-1.5 2.1s-1.4 1.1-2.3 1.4c-1 .3-2 .5-3 .5-1.1 0-2.1-.1-3.1-.4-.7-.2-1.4-.5-2.1-.8.2-.5.4-.9.5-1.4.2-.5.3-1 .3-1.5h.5l.6.9M263 25.1c-.1 1-.1 2-.2 3 0 1-.1 2-.1 3h1.6c.8 0 1.7-.1 2.6-.1 0 .1-.1.3 0 .4v1.2c-.4 0-.7 0-1.1-.1s-.8 0-1.2 0h-2c0 .1-.1.5-.1 1.3s-.1 1.7-.1 2.7 0 2.1-.1 3.2 0 2.1 0 3 0 1.5.1 2.2c0 .7.1 1.3.4 1.9.2.6.5 1 1 1.4s1.2.6 1.9.5c.3 0 .6 0 .9-.1.3 0 .6-.1.9-.2v1l-1.5.3c-.5.1-1.1.2-1.6.2-2.4.4-4.6-1.2-5-3.6-.1-.4-.1-.9 0-1.3v-2.3c0-.8.1-1.8.1-2.8s.1-2.1.1-3.4v-4.1h-2l-.8.1c0-.2.1-.3.1-.5v-.9c0-.1 0-.3-.1-.4 1.2.1 2.1.1 2.7.1 0-.5 0-1.2-.1-2s0-1.7-.1-2.5l3.4-1.4.3.2m-7.2 10c-.3-1-.9-1.9-1.5-2.6-.7-.8-1.6-1.4-2.6-1.8-1.2-.5-2.4-.7-3.7-.7-3 0-5.3.9-6.9 2.8s-2.4 4.5-2.4 7.8c0 1.3.2 2.6.7 3.8.9 2.3 2.8 4.1 5.1 4.9 1.3.5 2.6.7 4 .7 1.3 0 2.5-.2 3.7-.7 1.1-.4 2.1-.9 3-1.7l.2-2-.2-.1c-.4.4-.8.8-1.2 1.1l-1.5.9c-.5.3-1.1.5-1.7.6-.5.1-1.1.2-1.6.2-1 0-2.1-.2-3-.6-.8-.4-1.6-.9-2.2-1.6s-1.1-1.5-1.4-2.4c-.3-1-.5-2-.5-3V39.8c0-.7 0-1.3.1-1.9 0-.2.1-.4.1-.6l.1-.5c0-.3.1-.5.2-.8.2-.8.6-1.6 1-2.3.4-.7 1-1.3 1.7-1.7.8-.5 1.6-.7 2.5-.7s1.8.2 2.5.7c.6.5 1.2 1 1.5 1.7.4.7.6 1.5.7 2.3s.2 1.5.2 2.3h-1l-5.4.2h-.3c-.4 0-.6.2-.6.5s.3.4.6.4h.3l9.6.3c0-.3 0-.5.1-.8s0-.5 0-.8c0-1.1-.2-2.2-.5-3.2M127.8 69.1c-.3-1-.9-1.9-1.6-2.6-.7-.8-1.6-1.4-2.6-1.8-1.2-.5-2.4-.7-3.7-.7-2.6-.2-5.2.9-6.9 2.8-1.6 1.9-2.4 4.5-2.4 7.8 0 1.3.2 2.6.7 3.8.9 2.3 2.8 4.2 5.2 5 1.3.5 2.6.7 4 .7 1.3 0 2.6-.2 3.8-.7 1.1-.4 2.1-1 3-1.7l.2-2-.2-.1c-.4.4-.8.8-1.2 1.1-.5.4-1 .7-1.5.9-.5.3-1.1.5-1.7.6-.5.1-1.1.2-1.7.2-1 0-2.1-.2-3-.6-1.7-.8-3-2.2-3.6-4-.3-1-.5-2-.5-3v-1.1c0-.6 0-1.3.1-1.9 0-.2.1-.4.1-.6l.1-.5c.1-.3.1-.5.2-.8.2-.8.6-1.6 1-2.3.4-.7 1-1.3 1.7-1.7.8-.5 1.6-.7 2.5-.7s1.8.2 2.6.7c.6.4 1.2 1 1.5 1.7.4.7.6 1.5.7 2.3.1.8.2 1.5.2 2.3h-1l-5.4.2h-.3c-.4 0-.6.2-.6.4s.3.5.6.5h.3l9.6.3c0-.3.1-.5.1-.8V72c0-1.1-.2-2.2-.5-3.2m90.1.3c-.3-1-.9-1.9-1.6-2.6-.7-.8-1.6-1.4-2.6-1.8-1.2-.5-2.4-.7-3.7-.7-2.6-.2-5.2.9-6.9 2.8-1.6 1.9-2.4 4.5-2.4 7.8 0 1.3.2 2.6.7 3.8.9 2.3 2.8 4.2 5.2 5 1.3.5 2.6.7 4 .7 1.3 0 2.6-.2 3.8-.7 1.1-.4 2.1-1 3-1.7l.2-2-.2-.1c-.4.4-.8.8-1.2 1.1-.5.3-1 .7-1.5.9-.5.3-1.1.5-1.7.6-.5.1-1.1.2-1.7.2-1 0-2.1-.2-3-.6-1.7-.8-3-2.2-3.6-4-.3-1-.5-2-.5-3v-1.1c0-.6.1-1.3.1-1.9 0-.2.1-.4.1-.6s.1-.3.1-.5c.1-.3.1-.5.2-.8.2-.8.6-1.6 1-2.3.4-.7 1-1.3 1.7-1.7.8-.5 1.6-.7 2.5-.7s1.8.2 2.6.7c.6.5 1.2 1 1.5 1.7.4.7.6 1.5.7 2.3.1.8.2 1.5.2 2.3h-1l-5.4.2h-.3c-.4 0-.6.2-.6.4s.3.5.6.5h.3l9.6.3c0-.3 0-.5.1-.8s0-.5 0-.8c0-1.1-.2-2.2-.5-3.2m34.6-13c-.5 0-1.1.1-1.5.3-.4.2-.7.5-1 .9s-.5.8-.6 1.3-.2 1-.2 1.6c0 .7.1 1.4.1 2.1.1.9.2 1.8.4 2.7h4.2c0 .1 0 .3-.1.4s0 .3 0 .4v.4c0 .1 0 .3.1.4l-2.1-.1h-2.1V75c0 2.9 0 5.9.1 8.8-.3-.1-.6-.1-.9-.1h-.9c-.6 0-1.2 0-1.8.1.2-3 .3-5.9.3-8.8v-8.9h-1.5l-1.5.1c0-.1 0-.3.1-.4s0-.3 0-.4V65c0-.1 0-.3-.1-.4h3c0-.9.1-1.7.2-2.6.2-.9.4-1.8.7-2.7.3-.9.7-1.7 1.1-2.6.4-.7.9-1.4 1.5-2 .6-.5 1.2-1 1.9-1.3.7-.4 1.5-.6 2.3-.6.3 0 .6 0 .8.1 0 .5-.1 1.1-.1 1.6s-.1 1.1-.1 1.6l-.2.1c-.6-.2-1.4-.4-2.1-.4m12.5 11.5c-.4-.1-.8-.2-1.2-.2-.6 0-1.2.1-1.8.4-.5.3-1 .7-1.3 1.2-.4.5-.7 1.1-.8 1.8-.2.7-.3 1.5-.3 2.2v8.7c0 .8 0 1.6.1 2.3-.5-.1-1.1-.1-1.6-.1s-1.2 0-1.7.1c.1-.9.1-2.2.1-3.8V69c0-1.4-.1-3-.1-4.8.3.1.6.1.9.1s.6.1.9.1.5 0 .8-.1c.3 0 .6-.1.9-.1-.1 1-.2 1.8-.2 2.3v1.6h.1c1.6-2.9 3.4-4.4 5.4-4.4h.6c.2 0 .5.1.7.2-.2.5-.2 1-.2 1.5v1.8l-.3.2c-.4 0-.7-.1-1-.1m20-11.5c.4-.4.9-.6 1.5-.6 1.1 0 2.1.9 2.1 2.1 0 1.1-.9 2.1-2.1 2.1-1.1 0-2.1-.9-2.1-2.1 0-.6.2-1.1.6-1.5m-.1 12.4c0-1.3-.1-2.6-.3-3.8.6.1 1.2.2 1.8.2.6 0 1.2-.1 1.8-.2-.1 1.2-.2 2.4-.3 3.8s-.1 2.6-.1 3.9v4.2c0 1.2 0 2.5.1 3.9s.1 2.6.3 3.7c-.6-.1-1.2-.1-1.8-.1s-1.2 0-1.8.1c.1-1.1.2-2.3.3-3.7s.1-2.6.1-3.9v-4.2c-.1-1.3-.1-2.6-.1-3.9zm7.7 12.7c.3.3.6.7 1 .9.4.3.9.5 1.4.7s1.1.3 1.6.3 1-.1 1.5-.2c.5-.2.9-.4 1.3-.7.4-.3.7-.7.9-1.1.2-.5.3-1 .3-1.6 0-.7-.2-1.4-.7-1.9s-1.1-.8-1.8-1.1c-.8-.3-1.5-.6-2.3-.8-.8-.2-1.6-.5-2.3-.9-.7-.4-1.3-.9-1.8-1.6-.5-.8-.8-1.7-.7-2.7 0-.8.1-1.7.4-2.5.3-.7.7-1.4 1.3-1.9.6-.6 1.3-1 2.1-1.3.9-.3 1.9-.5 2.9-.5.9 0 1.7.1 2.6.4l2 .7-.6 1.5c-.2.5-.3.9-.4 1.4h-.5c-.2-.7-.7-1.3-1.3-1.8-.7-.5-1.5-.8-2.3-.8-.4 0-.8.1-1.2.2-.4.1-.8.3-1.1.6-.3.3-.6.7-.8 1.1-.2.5-.3 1-.3 1.6 0 .7.2 1.5.7 2s1.1.9 1.8 1.1c.8.3 1.5.5 2.3.7s1.6.5 2.3.9c.7.4 1.3.9 1.8 1.5.5.8.8 1.7.7 2.7 0 .8-.2 1.6-.5 2.3-.4.8-.9 1.4-1.5 2-.7.6-1.4 1.1-2.3 1.4-1 .3-2 .5-3.1.5s-2.1-.1-3.1-.4c-.7-.2-1.4-.5-2.1-.9.2-.5.4-1 .5-1.4.2-.5.3-1 .3-1.5h.5c0 .4.3.7.5 1.1m-10 1.7h-.4c-.3 0-.7-.1-.9-.3-.2-.2-.4-.4-.5-.7-.1-.3-.2-.7-.2-1v-1c0-1.7 0-3.4.1-4.9s.1-3.1.1-4.6c0-.9-.2-1.7-.5-2.5-.6-1.5-1.9-2.6-3.5-3.1-.9-.3-1.8-.4-2.7-.4-1.1 0-2.2.2-3.2.5-1.2.4-2.4 1.1-3.4 1.9v2.1h.4c.5-.9 1.2-1.6 2.1-2 .9-.5 2-.7 3-.7.7 0 1.4.1 2.1.4.5.3 1 .6 1.4 1.1s.6 1 .8 1.6c.2.6.2 1.3.2 1.9v3l-.2 6c-.5.8-1.2 1.5-2 2-.8.6-1.8.9-2.8.9-.9 0-1.8-.4-2.4-1-.8-.8-1.2-1.8-1.1-2.9 0-.6.1-1.3.4-1.9.3-.5.7-.9 1.1-1.2.5-.3 1-.6 1.6-.8.5-.2 1-.3 1.5-.4s.6-.2.6-.2l.3-.1c.4-.1.6-.4.6-.7-.1-.3-.5-.5-.8-.4h-.3l-.6.1c-.6.1-1.3.2-2.1.4-1.5.2-3 .8-4.2 1.8-1.1 1-1.6 2.4-1.5 3.8 0 .7.1 1.5.5 2.1.3.6.7 1.1 1.2 1.6.5.4 1.1.8 1.7.9.7.2 1.3.3 2 .3 1.2 0 2.4-.2 3.5-.7 1.1-.6 2.1-1.3 2.9-2.2.1.7.3 1.3.8 1.7.6.5 1.3.7 2 .7.5 0 1 0 1.5-.1.4-.1.8-.2 1.1-.3v-.9c0 .1-.2.1-.2.2m-164.1-21h-1.2l5.7-5.8c.2-.2.5-.4.9-.5 1.3-.3 1.5 1.3 1.2 2.1l-6.6 4.2" fill="#575756"/><path d="M104.1 108.7h110.1" fill="none" stroke="#575756" stroke-width=".3" stroke-miterlimit="10"/><path d="M224.2 91.8h2.6v16.9h-2.6V91.8zm16.5 16.9v-7.9l-.4-1.3c-1.2-1.9-4.7-2-5.9 0-.2.4-.4.9-.5 1.3v7.9h-2.2V96.9h2.1V99c.9-1.3 2.4-2.1 4-2.3 2.2-.1 4.6.9 5 3.1v8.8l-2.1.1m12.4-.1c-1.9.5-4.4.6-5.1-1.3l-.2-1.1-.1-8.1h-1.9v-.9h1.9v-2.8l2-.9v3.6h3.1v.9h-3.1v7.6c0 .8.3 1.5.8 2.1.8.3 1.7.4 2.6.2v.7m3.4-5.9c-.3 2.5 1.4 4.8 3.9 5.2 1.9.3 3.9-.3 5.4-1.6l-.2 1.3c-3.9 2.6-10.3 1.4-11.2-3.1-.5-2.8.2-5.7 3.1-7.1 1.2-.5 2.4-.8 3.7-.7 2.9 0 5.3 2.4 5.3 5.4v.6h-10m4.2-5.2c-2.7-.3-4.1 2.2-4.1 4.2h7.5c.3-2-1-3.9-3-4.2-.1.1-.2.1-.4 0zm15.3 1.4c-.7-.3-1.4-.4-2.1-.2-.9.3-1.7.9-2.2 1.7v8.3h-1.9V97h1.9v2.4c.8-1.3 2.1-2.3 3.7-2.6.3 0 .7 0 1 .1v1.9c-.1.1-.2.1-.4.1m9.1-6.8c-1.5-.6-3.3-.4-3.8 1.2-.1 1.3-.1 2.6.1 3.9h3v.9h-2.9v10.6h-2.1V98.1h-1.9v-.9h2c.1-2.7 1.4-7.1 5.3-7.1h.5c-.2.7-.2 1.3-.2 2m1.8 10.6c-.3 2.5 1.4 4.8 3.9 5.2 1.9.3 3.9-.3 5.4-1.6l-.2 1.3c-3.9 2.6-10.3 1.4-11.2-3.1-.5-2.8.2-5.7 3.1-7.1 1.2-.5 2.4-.8 3.7-.7 2.9 0 5.3 2.4 5.2 5.4v.6h-9.9m4.2-5.2c-2.7-.3-4.1 2.2-4.1 4.2h7.5c.1-1.8-1-4.1-3.4-4.2zm9.5-7.3h2.3v18.5h-2.3V90.2z" fill="#3b5624"/><path d="M42.8 14.1c-1.2 0-1.4-.9-1.5-2-.5-5.5-8.6-7.5-13.2-7.5-6.6 0-13.2 3.2-13.2 10.8 0 2.8 1.6 6.6 4.2 10.9 7.9-3.3 26.2-8.8 41.2 1.5h.9c3.5.2 6.9.6 10.4 1.3V.1H43.1c1.3.5 2.5 1.2 3.6 2-2 11.2-2.3 12-3.9 12" fill="#3b5623"/><path d="M12.2 37.6c-3.5-5.1-7.1-11.1-7.1-17.2 0-9.6 7.1-17 15.6-20.4H0v44.1c3.7-2.8 8-4.8 12.6-5.9l-.4-.6" fill="#3b5623"/><path d="M21.3 63c1.7-2.4 3.6-4.6 5.8-6.6-4.4-5.1-8.3-9.8-11.6-14C5.2 42.4.3 53.3.3 62.3.2 72.7 5.1 82.4 13.5 88.5c-1.3-6.8.7-15.7 7.8-25.5" fill="#bf2b18"/><path d="M95.9 21.6c-1.4 0-1.8 1.5-3.2 4.2-1.2 2.2-4 4.5-11.3 4.5-3.8 0-6-.8-9.8-1.3h-.1c-3.4-.7-6.9-1.1-10.3-1.3h-.9c-15-10.3-33.2-4.7-41.2-1.4 1.7 2.7 3.5 5.2 5.4 7.7 3.8 5 8.4 10.3 13.3 15.5 10.2-4.4 21.1-3.3 28.6 2.3 2 1.5 3.8 3.3 5.2 5.3 2.8 4.2 4.1 9.3 3.6 14.4 1-3.5 1.4-7.2 1.4-10.9v-.2c-.1-5.5-1.8-10.9-5-15.4-3.5-4.8-8.7-8.3-15.4-8.5h-.3c-3.2-.1-6.4 1.1-8.8 3.2l-2.2-2.8c.7-.9 1.5-1.8 2.5-2.5.3-.2.6-.5.9-.7 4.2-2.8 9.3-3.8 14.2-3 .7.1 1.4.3 2.1.4 2.5.6 4.8 1.7 7 3 .5.3 1 .6 1.4 1 .5.1 1 .3 1.4.4 6.1 1.8 8.5 2.6 13.1 2.6s9.8-2 9.8-6.3v-8c0-1.2 0-2.2-1.4-2.2" fill="#95c11f"/><path d="M71.5 96.7v12H.1V92.4c7.2 5.5 16.8 8.4 26.7 9.2 10.5.8 23.9-.3 36-7.2.8-.5 1.7-1 2.5-1.5 0 0 4.9 3.1 6.2 3.8" fill="#3b5623"/><path d="M60.2 89.1c-11.9-10-23-20.9-33.2-32.7-2.1 2-4.1 4.2-5.8 6.6-7.1 9.8-9 18.7-7.8 25.5 6.2 4.5 14.5 7.3 25 7.3 7.9.1 15.6-2 22.3-6.2" fill="#f7a600"/><path d="M71.5 57c-1.4-2.1-3.2-3.9-5.2-5.3-7.5-5.6-18.3-6.7-28.6-2.3C50.5 63.2 64.8 76.3 70 80.6l1.5-1.8c1.6-2.3 2.8-4.8 3.6-7.4.5-5.1-.8-10.2-3.6-14.4" fill="#ffed00"/><path d="M101.6 87.3c-2.9 2.5-6.6 3.9-10.5 4-5.7 0-12.3-3.7-16.6-7l-.6-.5c6.4-6.9 10.6-15.9 10.6-25.5 0-7.7-1.5-13.9-7-19.3-4-4-9-7.3-15-8.3-6.4-1-13.6 1-17.6 6.2l2.2 2.8c2.4-2.1 5.5-3.3 8.8-3.2 13.1 0 20.7 13.2 20.7 23.8 0 8.2-1.8 15.2-6.5 20.3-10-8.6-55.2-50.3-55.2-65.4 0-7.5 6.6-10.8 13.2-10.8 4.6 0 12.8 2 13.2 7.5.2 1.1.3 2 1.5 2 1.5 0 1.8-.8 3.8-12.1-4-2.9-10.3-4.2-15.2-4.2-12.3 0-26.3 9.1-26.3 22.6 0 6.2 3.5 12.2 7.1 17.2l.4.6c-14 3.3-24.4 14.8-24.4 29.5 0 24.6 22.6 34.1 44.1 34.1 11.5 0 23.1-2.6 32.8-8.9l.1-.1c4.7 3.2 13.4 8.4 18.7 8.4s15.7-7.8 20-10.9l-2.3-2.8m-40.8 2.3c-6.7 4.2-14.4 6.3-22.3 6.2C13.1 95.8.2 79.3.2 62.3c0-9 4.8-19.8 15.2-19.8 9.8 12.4 24.8 30 44.8 46.7l.6.4z" fill="#fff"/></svg>