<svg xmlns="http://www.w3.org/2000/svg" xmlns:xlink="http://www.w3.org/1999/xlink" version="1.1" x="0px" y="0px" viewBox="0 0 69 86.25" style="enable-background:new 0 0 69 69;" xml:space="preserve"><g><path d="M65.49976,60.94141h-5.79602c1.1756-1.15063,1.90247-2.70227,1.90247-4.41211c0-1.34473-0.44824-2.63379-1.26367-3.7002   c3.56152-1.76758,5.93945-5.57813,5.93945-9.76367c0-5.62988-4.16797-10.26855-9.4707-10.76855   c-0.37793-3.89453-2.97266-7.16406-6.60352-8.41309c3.85904-5.98578-2.96705-13.22586-9.20801-9.68066   c-1.12598-4.74512-5.22119-8.14453-10.12158-8.14453c-5.74756,0-10.42383,4.84473-10.42383,10.79883   c0,0.18945,0.00488,0.37891,0.01465,0.56641C14.22005,16.5619,8.67847,21.63551,8.67847,28.14258   c0,1.68066,0.36865,3.31543,1.07471,4.79199c-4.14307,1.57227-7.03516,5.78223-7.03516,10.47656   c0,3.56152,1.63135,6.87891,4.33203,8.95313c-1.05957,1.14551-1.64746,2.60645-1.64746,4.16504   c0,1.70984,0.72687,3.26147,1.90247,4.41211H3.50024c-0.55225,0-1,0.44727-1,1s0.44775,1,1,1c21.62509,0,38.64461,0,61.99951,0   c0.55273,0,1-0.44727,1-1S66.05249,60.94141,65.49976,60.94141z M42.00201,60.94141l3.83136-6.71313l8.77966-6.99292   c0.43164-0.34375,0.50293-0.97363,0.15918-1.40527c-0.34277-0.43262-0.9707-0.50488-1.40527-0.15918l-6.58392,5.24414   l3.39447-13.0498c0.13867-0.53516-0.18164-1.08105-0.71582-1.21973c-0.53516-0.1416-1.08008,0.18066-1.21973,0.71582   l-3.2168,12.3667l-2.42969-8.68604c-0.14746-0.53223-0.7041-0.83887-1.23242-0.69336   c-0.53174,0.14844-0.84229,0.7002-0.69336,1.23242l3.31512,11.85132l-4.28583,7.50903h-4.73291V42.12305   c0-0.33984-0.17236-0.65527-0.45703-0.83984l-1.99213-1.28748l3.93646-6.74866c0.08936-0.15332,0.13623-0.32715,0.13623-0.50391   V24.625c0-0.55273-0.44775-1-1-1s-1,0.44727-1,1v7.84766l-3.75421,6.4364l-3.39813-2.19617l-2.5166-9.45801   c-0.14209-0.53418-0.6875-0.84961-1.22363-0.70996c-0.53369,0.14258-0.85107,0.69043-0.70898,1.22363l2.61572,9.83105   c0.06396,0.24023,0.21484,0.44824,0.42334,0.58301l6.93896,4.48438v18.27441h-5.14111l-5.40808-5.9502l1.97791-10.07227   c0.10645-0.54199-0.24658-1.06738-0.78857-1.17383c-0.54297-0.10645-1.06787,0.24609-1.17432,0.78906l-1.62378,8.27051   l-5.77759-8.19043c-0.31836-0.45215-0.94385-0.55762-1.39355-0.24121c-0.45166,0.31836-0.55957,0.94238-0.24121,1.39355   l6.1217,8.67847l-6.65295,0.57251c-0.5498,0.04688-0.95752,0.53125-0.91016,1.08203   c0.04443,0.52051,0.48145,0.91406,0.99512,0.91406c0.02832,0,0.05762-0.00098,0.08691-0.00391l7.89441-0.6792l4.19067,4.61084   H12.29028c-2.69531,0-4.8877-1.97949-4.8877-4.41211c0-1.35938,0.67725-2.61914,1.85791-3.45508   c0.27783-0.19727,0.43604-0.52148,0.4209-0.86133c-0.01563-0.33984-0.20264-0.64941-0.49707-0.82031   c-2.75488-1.59961-4.46631-4.6582-4.46631-7.98145c0-4.21704,2.81055-7.94971,6.68909-8.89844   c0.57513-0.05945,7.12793-0.62708,9.73523,4.43555c0.25704,0.49855,0.8669,0.6804,1.34717,0.43066   c0.49072-0.25293,0.68408-0.85547,0.43115-1.34668c-2.82825-5.48999-9.04822-5.65955-11.12872-5.55273   c-0.71686-1.31384-1.11346-2.79419-1.11346-4.33691c0-5.71774,5.19444-10.05404,10.6748-8.49023   c0.33496,0.09375,0.69482,0.01074,0.95117-0.22559c0.25586-0.23535,0.37158-0.58691,0.30469-0.92871   c-0.10254-0.52441-0.15479-1.07715-0.15479-1.64063c0-4.85156,3.77881-8.79883,8.42383-8.79883   c4.41846,0,8.02881,3.44531,8.39795,8.01367c0.03076,0.38672,0.28223,0.71973,0.64502,0.85645   c0.36133,0.13672,0.77051,0.0498,1.04932-0.21973c4.44503-4.32843,11.16347,1.93528,7.1358,6.61121   c-4.0626-1.05338-7.52694,0.73881-8.27448,5.85071c-0.08008,0.5459,0.29785,1.05371,0.84473,1.13379   c0.04883,0.00781,0.09766,0.01074,0.146,0.01074c0.48779,0,0.91553-0.35742,0.98779-0.85547   c0.28418-1.94238,0.99316-3.25781,2.10645-3.91113c1.74051-1.01977,3.90901-0.1718,4.34766-0.09961   c3.80859,0.62695,6.58203,3.91016,6.59375,7.80566c0.00195,0.55078,0.44922,0.99707,1,0.99707   c4.64453,0,8.42383,3.9541,8.42383,8.81348c0,3.86816-2.46484,7.33789-5.99414,8.44043   c-0.35449,0.11035-0.61816,0.40723-0.68555,0.77148c-0.06738,0.36523,0.07227,0.7373,0.36328,0.9668   c1.04297,0.8252,1.64063,2.02246,1.64063,3.28516c0,2.43262-2.19238,4.41211-4.8877,4.41211H42.00201z"/></g></svg>