<svg xmlns:dc="http://purl.org/dc/elements/1.1/" xmlns:cc="http://creativecommons.org/ns#" xmlns:rdf="http://www.w3.org/1999/02/22-rdf-syntax-ns#" xmlns:svg="http://www.w3.org/2000/svg" xmlns="http://www.w3.org/2000/svg" xmlns:sodipodi="http://sodipodi.sourceforge.net/DTD/sodipodi-0.dtd" xmlns:inkscape="http://www.inkscape.org/namespaces/inkscape" viewBox="0 0 12.7 15.875" version="1.1" x="0px" y="0px"><g transform="translate(0,-284.29998)"><path style="" d="m 6.3479031,284.82916 a 0.18659553,0.18659553 0 0 0 -0.1296971,0.0544 l -0.5229555,0.52291 a 2.1585009,2.1585009 0 0 0 -0.7070837,-0.16328 0.18659553,0.18659553 0 0 0 -0.19715,0.18617 v 0.67042 a 2.6687181,2.6687181 0 0 0 -0.203661,-0.0153 0.18659553,0.18659553 0 0 0 -0.1927226,0.18668 v 2.31595 a 1.9559672,1.9559672 0 0 0 1.8642008,1.95377 v 1.31795 a 2.2104148,2.2104148 0 0 0 -2.4342952,-0.84896 0.17532172,0.17532172 0 0 0 -0.1247488,0.18414 2.2649995,2.2649995 0 0 0 2.559044,2.03669 v 3.14863 a 0.09141305,0.09141305 0 0 0 0.1828261,0 v -1.71013 a 2.2649995,2.2649995 0 0 0 2.5585231,-2.03618 0.17532172,0.17532172 0 0 0 -0.1247488,-0.18465 2.2104148,2.2104148 0 0 0 -2.4337743,0.84947 v -2.75696 a 1.9559672,1.9559672 0 0 0 1.8647217,-1.95377 v -2.31595 a 0.18659553,0.18659553 0 0 0 -0.1937644,-0.18668 2.6687181,2.6687181 0 0 0 -0.2031401,0.0153 v -0.67042 a 0.18659553,0.18659553 0 0 0 -0.1974105,-0.18617 2.1585009,2.1585009 0 0 0 -0.7073441,0.16328 l -0.5224346,-0.52291 a 0.18659553,0.18659553 0 0 0 -0.134385,-0.0544 z m -1.3743207,0.59565 a 1.9761957,1.9761957 0 0 1 1.6871044,1.15213 2.6687181,2.6687181 0 0 0 -0.3107002,0.25839 2.6687181,2.6687181 0 0 0 -1.3764042,-0.70907 z m 2.7538502,0 v 0.70145 a 2.6687181,2.6687181 0 0 0 -0.9130886,0.34894 2.1585009,2.1585009 0 0 0 -0.3377855,-0.5107 1.9761957,1.9761957 0 0 1 1.2508741,-0.53969 z m -3.1525777,0.83879 a 0.00530075,0.00530075 0 0 0 0,5.2e-4 0.00530075,0.00530075 0 0 0 0,5.2e-4 0.00530075,0.00530075 0 0 0 0,5.2e-4 0.00530075,0.00530075 0 0 0 0,5.2e-4 0.00530075,0.00530075 0 0 0 0,5.2e-4 0.00530075,0.00530075 0 0 0 0,5.2e-4 2.4864128,2.4864128 0 0 1 2.3978342,2.48483 l -0.00521,1.49394 a 1.773662,1.773662 0 0 1 -2.4027824,-1.65875 v -2.31595 a 0.00530075,0.00530075 0 0 0 0,-5.2e-4 0.00530075,0.00530075 0 0 0 0,-5.2e-4 0.00530075,0.00530075 0 0 0 0,-5.2e-4 0.00530075,0.00530075 0 0 0 0,-5.2e-4 0.00530075,0.00530075 0 0 0 0,-5.2e-4 0.00530075,0.00530075 0 0 0 0,-5.3e-4 0.00530075,0.00530075 0 0 0 0,-5.2e-4 0.00530075,0.00530075 0 0 0 0,-5.2e-4 0.00530075,0.00530075 0 0 0 0,-5.2e-4 0.00530075,0.00530075 0 0 0 0,-5.2e-4 0.00530075,0.00530075 0 0 0 0,-5.2e-4 0.00530075,0.00530075 0 0 0 0,-5.2e-4 0.00530075,0.00530075 0 0 0 0,-5.2e-4 0.00530075,0.00530075 0 0 0 0,-5.2e-4 z m 3.5489612,0.003 v 2.32053 a 1.773662,1.773662 0 0 1 -0.9625714,1.57737 v -1.41307 a 2.6687181,2.6687181 0 0 0 -0.6846862,-1.7849 2.4864128,2.4864128 0 0 1 1.6472576,-0.69993 z m -3.6705848,4.83485 a 2.0281095,2.0281095 0 0 1 1.8056027,1.11093 v 0.83421 a 2.0826943,2.0826943 0 0 1 -2.3769993,-1.86375 2.0281095,2.0281095 0 0 1 0.5713966,-0.0814 z m 3.7646022,1.43953 a 2.0281095,2.0281095 0 0 1 0.6005654,0.0809 2.0826943,2.0826943 0 0 1 -2.3767388,1.86324 v -0.83421 a 2.0281095,2.0281095 0 0 1 1.7761734,-1.1099 z" fill="#000000" stroke="none"/></g></svg>