<svg xmlns:dc="http://purl.org/dc/elements/1.1/" xmlns:cc="http://creativecommons.org/ns#" xmlns:rdf="http://www.w3.org/1999/02/22-rdf-syntax-ns#" xmlns:svg="http://www.w3.org/2000/svg" xmlns="http://www.w3.org/2000/svg" xmlns:sodipodi="http://sodipodi.sourceforge.net/DTD/sodipodi-0.dtd" xmlns:inkscape="http://www.inkscape.org/namespaces/inkscape" viewBox="0 0 16.933333 21.1666675" version="1.1" x="0px" y="0px"><svg:g transform="translate(0,6.35)"><svg:path style="color:#000000;font-style:normal;font-variant:normal;font-weight:normal;font-stretch:normal;font-size:medium;line-height:normal;font-family:sans-serif;font-variant-ligatures:normal;font-variant-position:normal;font-variant-caps:normal;font-variant-numeric:normal;font-variant-alternates:normal;font-feature-settings:normal;text-indent:0;text-align:start;text-decoration:none;text-decoration-line:none;text-decoration-style:solid;text-decoration-color:#000000;letter-spacing:normal;word-spacing:normal;text-transform:none;writing-mode:lr-tb;direction:ltr;text-orientation:mixed;dominant-baseline:auto;baseline-shift:baseline;text-anchor:start;white-space:normal;shape-padding:0;clip-rule:nonzero;display:inline;overflow:visible;visibility:visible;opacity:1;isolation:auto;mix-blend-mode:normal;color-interpolation:sRGB;color-interpolation-filters:linearRGB;solid-color:#000000;solid-opacity:1;vector-effect:none;fill:#000000;fill-opacity:1;fill-rule:nonzero;stroke:none;stroke-width:0.52914995;stroke-linecap:round;stroke-linejoin:round;stroke-miterlimit:4;stroke-dasharray:none;stroke-dashoffset:0;stroke-opacity:1;paint-order:stroke fill markers;color-rendering:auto;image-rendering:auto;shape-rendering:auto;text-rendering:auto;enable-background:accumulate" d="m 5.1245976,-5.5547914 c -0.0034,0 -0.0074,0 -0.01126,1.4e-4 -0.06871,0.002 -0.133961,0.0307 -0.181886,0.08 -0.80886,0.80886 -0.741848,1.98703 -0.504587,2.91302 0.033,0.12872 0.06952,0.25368 0.107976,0.37348 l -2.417065,-2.41706 c -0.04985,-0.0513 -0.11832,-0.0802 -0.18984,-0.0802 -0.10768,0 -0.204595,0.0653 -0.245071,0.16513 -0.04046,0.0998 -0.01643,0.21414 0.06076,0.2892 l 2.417077,2.41707 c -0.119812,-0.0385 -0.244781,-0.075 -0.3735,-0.10797 -0.347247,-0.089 -0.729924,-0.15401 -1.115321,-0.15789 -0.64233,-0.006 -1.292124,0.15694 -1.79766396,0.66248 -0.106138,0.10282 -0.107486,0.27264 -0.0028,0.37714 0.104495,0.10450002 0.27432696,0.10314002 0.37714596,-0.003 0.613812,-0.61381 1.562396,-0.58269 2.407493,-0.36616 0.495969,0.12708 0.935706,0.3133 1.214576,0.44554002 l -1.518145,1.51815 C 2.5162906,1.3774186 2.6749766,2.8227286 3.6697616,3.4449586 l 3.016038,1.89919 c 0.123753,0.0799 0.288972,0.0434 0.367478,-0.0813 0.0785,-0.12467 0.04005,-0.28945 -0.08552,-0.36651 l -3.016695,-1.89961 c -2.07e-4,-1.4e-4 -4.49e-4,-2.7e-4 -6.7e-4,-4.1e-4 -0.700385,-0.43808 -0.815364,-1.48544 -0.226663,-2.06495998 4.97e-4,-4.9e-4 6.91e-4,-6.9e-4 0.0014,-0.001 1.18963,-1.18539 2.364725,-2.36474002 3.550951,-3.55096002 l -0.01243,0.01 c 0.0093,-0.007 0.01823,-0.0153 0.02658,-0.0238 l -6.91e-4,10e-4 c 0.581969,-0.57976 1.620536,-0.46089 2.056145,0.23551 1.38e-4,2.2e-4 2.83e-4,4.4e-4 4.07e-4,6.7e-4 L 10.528158,-0.52031138 7.8884826,2.1193586 c -0.105815,0.10289 -0.107008,0.27245 -0.0028,0.37681 0.104355,0.10436 0.273919,0.10318 0.376807,-0.003 l 2.5547024,-2.55470998 1.258312,1.99795998 -2.1848844,2.18486 c -0.105687,0.10291 -0.106815,0.27237 -0.0028,0.37668 0.104312,0.1043 0.2737754,0.10316 0.3766764,-0.003 l 2.099865,-2.09986 1.259659,2.00011 c -0.0102,0.008 -0.01982,0.0162 -0.02886,0.0253 l -1.702541,1.70253 c -0.105815,0.10289 -0.107007,0.27245 -0.0028,0.37681 0.104355,0.10436 0.273918,0.10318 0.376806,-0.003 l 1.645062,-1.64506 1.499212,2.38048 -0.0048,-0.01 c 0.0034,0.008 0.0079,0.015 0.01243,0.0222 0.324758,0.51897 0.179068,1.2728 -0.185891,1.63775 -0.364957,0.36497 -1.1188,0.51064 -1.637798,0.18589 -0.002,-0.001 -0.0034,-0.002 -0.0055,-0.003 l -5.0898914,-3.20504 c -0.123795,-0.0809 -0.28989,-0.0447 -0.368694,0.0805 -0.07881,0.12515 -0.03971,0.2906 0.08676,0.36727 l 5.0939274,3.2076 c 0.0081,0.005 0.01643,0.01 0.02507,0.0139 0.753234,0.45631 1.719736,0.27789 2.270413,-0.2728 0.550862,-0.55086 0.729296,-1.51785 0.272373,-2.2712 l -6.5e-4,-0.001 c -0.0042,-0.008 -0.0082,-0.0154 -0.01285,-0.0228 l -6.0719154,-9.64109 c -0.348008,-0.55633 -0.953687,-0.85166 -1.564145,-0.85702 -0.464822,-0.004 -0.931577,0.16138 -1.290281,0.50624 l 5.18e-4,-3.9e-4 c -6e-4,5.1e-4 -0.0014,6.9e-4 -0.002,10e-4 -0.0072,0.007 -0.01533,0.0128 -0.02251,0.0199 -0.02313,0.0231 -0.04177,0.0501 -0.05503,0.08 l 0.02016,-0.0454 -1.495795,1.4958 c -0.132244,-0.27887 -0.31848,-0.71861 -0.445555,-1.21458 -0.216534,-0.84509 -0.247646,-1.79368 0.366167,-2.40748 0.170375,-0.16561 0.05282,-0.45226 -0.181057,-0.45435 z"/></svg:g><text x="0" y="31.933334" fill="#000000" font-size="5px" font-weight="bold" font-family="'Helvetica Neue', Helvetica, Arial-Unicode, Arial, Sans-serif">Created by Alzam</text><text x="0" y="36.933334" fill="#000000" font-size="5px" font-weight="bold" font-family="'Helvetica Neue', Helvetica, Arial-Unicode, Arial, Sans-serif">from the Noun Project</text></svg>