<svg xmlns="http://www.w3.org/2000/svg" xmlns:xlink="http://www.w3.org/1999/xlink" version="1.1" x="0px" y="0px" viewBox="0 0 100 125" enable-background="new 0 0 100 100" xml:space="preserve"><path d="M68.6259766,34.9804688c-5.3597412,0-14.0032349,1.3535156-18.914856,9.2088013  c0.1962891-5.0715332,0.6835938-10.1100464,1.8887939-14.9346313c0.6287842,0.0795288,1.5498047,0.1623535,2.6862183,0.1623535  c5.8779297,0,16.5742188-2.1191406,22.1699219-16.3144531l0.5195313-1.3183594l-1.2861328-0.59375  c-0.1601563-0.0737305-3.9746094-1.8095703-8.7607422-1.8095703c-4.7431641,0-10.6113281,1.6767578-14.5410156,8.6303711  c-0.4013672-1.7333984-1.1025391-3.5917969-2.2739258-5.4169922c-3.0712891-4.7841797-8.4892578-7.9492188-16.1035156-9.4072266  l-1.6728516-0.3203125l-0.1064453,1.699707C32.2177734,4.777832,31.1817017,24.901001,48.6313477,28.7422485  c-2.0487671,8.3404541-2.053772,17.1171265-2.0576172,25.6395874c-0.0011597,2.5546265-0.0098267,5.1590576-0.0687866,7.7414551  c-3.7719727-3.7623901-11.1500854-5.302063-21.9727173-4.5734863l-2.1621094,0.1464844l0.8979492,1.9716797  c0.3232422,0.7099609,8.0161133,17.3994141,17.0234375,19.0009766c0.4897461,0.0869141,0.9736328,0.1308594,1.4506836,0.1308594  c1.0610962,0,2.0878296-0.2240601,3.0789795-0.6530151c-0.3521118,1.5927734-0.7546997,3.1213379-1.2220459,4.5797729  c-0.8798828,2.7451172-3.5566406,11.0976563-6.9443359,12.3925781c-0.7739258,0.2958984-1.1611328,1.1630859-0.8652344,1.9375  c0.2285156,0.5966797,0.7973633,0.9638672,1.4013672,0.9638672c0.1777344,0,0.3588867-0.03125,0.5351563-0.0986328  c4.1713867-1.5947266,6.7539063-8.1132813,8.7294922-14.2792969c1.5263672-4.7626953,2.4580078-10.1220703,2.8496094-16.3847656  c0.2641602-4.2333984,0.2666016-8.6259766,0.2685547-12.875c0.0001221-0.2930298,0.0004883-0.5872803,0.0007324-0.8809204  c1.3635254,0.6005249,3.3409424,1.2134399,5.7556152,1.2139282h0.0009766c5.25,0,13.0966797-2.9384766,20.6611328-16.934082  l0.9345703-1.7294922l-1.9140625-0.4448242C74.9023438,35.581543,72.2724609,34.9804688,68.6259766,34.9804688z   M66.9287109,12.3808594c2.53125,0,4.7841797,0.5786133,6.1455078,1.0249023  c-5.0664063,11.2797852-13.8701172,13.0112305-18.7880859,13.0112305c-0.7415161,0-1.3668823-0.0408936-1.8563232-0.088623  c0.0160522-0.0501099,0.029541-0.1010742,0.0457764-0.151123c0.0354614-0.1091919,0.0548706-0.2192993,0.0648193-0.3289795  C54.8421021,16.9165649,59.6784058,12.3808594,66.9287109,12.3808594z M35.21875,6.5166016  c5.8378906,1.4121094,9.9946289,3.9975586,12.3706055,7.6982422c3.3652344,5.2426758,2.0180664,10.9624023,1.9570313,11.2119141  l0.0206299,0.0050049c-0.0443115,0.1383057-0.0834351,0.277832-0.1264038,0.4164429  C37.0089722,23.1986084,35.378479,11.1216431,35.21875,6.5166016z M40.8178711,75.7158203  c-5.4091797-0.9609375-11.1328125-10.0507813-13.8422852-15.2919922c11.199707-0.4453125,15.8388672,1.9853516,17.7514648,4.1738281  c1.7749023,2.0302734,1.3935547,4.1132813,1.3691406,4.2353516c-0.0536499,0.2442627-0.0378418,0.4857788,0.0236816,0.711853  c-0.1419678,1.5739136-0.3251953,3.0811157-0.5453491,4.5343628C44.0636597,75.4713135,42.505188,76.0135498,40.8178711,75.7158203z   M55.3300781,51.7158203c-2.3291016-0.0009766-4.1552734-0.7319336-5.1542969-1.2480469  c3.0859375-10.2875977,11.6728516-12.4873047,18.4501953-12.4873047c1.4414063,0,2.7128906,0.1049805,3.6884766,0.2231445  C67.1337891,47.0551758,61.2880859,51.7158203,55.3300781,51.7158203z"/></svg>